# MagicaVoxel @ Ephtracy

# group
o 

# material
mtllib untitled.mtl
usemtl palette

# normals
vn -1 0 0
vn 1 0 0
vn 0 0 1
vn 0 0 -1
vn 0 -1 0
vn 0 1 0

# texcoords
vt 0.201172 0.5
vt 0.306641 0.5
vt 0.537109 0.5
vt 0.873047 0.5

# verts
v 0 2 0
v 0 2 -4
v 0 6 0
v 0 6 -4
v 4 2 0
v 4 2 -4
v 4 6 0
v 4 6 -4
v 0 2 0
v 0 6 0
v 1.6 4.9 0
v 1.6 6 0
v 1.9 5.9 0
v 1.9 6 0
v 2.1 5.9 0
v 2.1 6 0
v 2.4 4.9 0
v 2.4 6 0
v 4 2 0
v 4 6 0
v 0 2 -4
v 0 6 -4
v 1.6 4.9 -4
v 1.6 6 -4
v 1.9 5.9 -4
v 1.9 6 -4
v 2.1 5.9 -4
v 2.1 6 -4
v 2.4 4.9 -4
v 2.4 6 -4
v 4 2 -4
v 4 6 -4
v 0 2 0
v 4 2 0
v 0.1 2 -0.1
v 3.9 2 -0.1
v 0.1 2 -3.9
v 3.9 2 -3.9
v 0 2 -4
v 4 2 -4
v 0 6 0
v 1.6 6 0
v 1.9 6 0
v 2.1 6 0
v 2.4 6 0
v 4 6 0
v 0 6 -4
v 1.6 6 -4
v 1.9 6 -4
v 2.1 6 -4
v 2.4 6 -4
v 4 6 -4

# faces
f 3/3/1 2/3/1 1/3/1
f 4/3/1 2/3/1 3/3/1
f 5/3/2 6/3/2 7/3/2
f 7/3/2 6/3/2 8/3/2
f 11/3/3 10/3/3 9/3/3
f 12/3/3 10/3/3 11/3/3
f 13/1/3 12/1/3 11/1/3
f 14/1/3 12/1/3 13/1/3
f 15/1/3 13/1/3 11/1/3
f 15/4/3 14/4/3 13/4/3
f 16/4/3 14/4/3 15/4/3
f 17/3/3 11/3/3 9/3/3
f 17/1/3 15/1/3 11/1/3
f 17/1/3 16/1/3 15/1/3
f 18/1/3 16/1/3 17/1/3
f 19/3/3 17/3/3 9/3/3
f 19/3/3 18/3/3 17/3/3
f 20/3/3 18/3/3 19/3/3
f 21/3/4 22/3/4 23/3/4
f 23/3/4 22/3/4 24/3/4
f 23/1/4 24/1/4 25/1/4
f 25/1/4 24/1/4 26/1/4
f 23/1/4 25/1/4 27/1/4
f 25/4/4 26/4/4 27/4/4
f 27/4/4 26/4/4 28/4/4
f 21/3/4 23/3/4 29/3/4
f 23/1/4 27/1/4 29/1/4
f 27/1/4 28/1/4 29/1/4
f 29/1/4 28/1/4 30/1/4
f 21/3/4 29/3/4 31/3/4
f 29/3/4 30/3/4 31/3/4
f 31/3/4 30/3/4 32/3/4
f 35/3/5 34/3/5 33/3/5
f 36/3/5 34/3/5 35/3/5
f 37/3/5 35/3/5 33/3/5
f 37/2/5 36/2/5 35/2/5
f 38/3/5 34/3/5 36/3/5
f 38/2/5 36/2/5 37/2/5
f 39/3/5 37/3/5 33/3/5
f 39/3/5 38/3/5 37/3/5
f 40/3/5 34/3/5 38/3/5
f 40/3/5 38/3/5 39/3/5
f 41/3/6 42/3/6 47/3/6
f 42/1/6 43/1/6 48/1/6
f 47/3/6 42/3/6 48/3/6
f 43/4/6 44/4/6 49/4/6
f 48/1/6 43/1/6 49/1/6
f 44/1/6 45/1/6 50/1/6
f 49/4/6 44/4/6 50/4/6
f 45/3/6 46/3/6 51/3/6
f 50/1/6 45/1/6 51/1/6
f 51/3/6 46/3/6 52/3/6
